<?xml version="1.0" encoding="utf-8"?>
<!-- Generator: Adobe Illustrator 16.0.0, SVG Export Plug-In . SVG Version: 6.00 Build 0)  -->
<!DOCTYPE svg PUBLIC "-//W3C//DTD SVG 1.1//EN" "http://www.w3.org/Graphics/SVG/1.1/DTD/svg11.dtd">
<svg version="1.1" id="Layer_1" xmlns="http://www.w3.org/2000/svg" xmlns:xlink="http://www.w3.org/1999/xlink" x="0px" y="0px"
	 width="512px" height="512px" viewBox="0 0 512 512" enable-background="new 0 0 512 512" xml:space="preserve">
<path d="M256.013,31.854c40.642,0,73.689,33.075,73.689,73.715c0,40.641-33.048,73.703-73.689,73.703
	c-40.639,0-73.715-33.062-73.715-73.703C182.298,64.93,215.374,31.854,256.013,31.854z"/>
<path d="M356.892,473.086c-5.811,6.199-12.049,7.512-16.27,7.512H171.368c-4.221,0-10.471-1.313-16.271-7.512
	c-4.5-4.832-6.783-11.123-6.783-18.701c0-7.711,2.219-14.163,6.598-19.152c5.84-6.61,12.17-7.991,16.457-7.991h19.219V286.182
	h-19.219c-4.221,0-10.471-1.3-16.271-7.511c-4.5-4.831-6.783-11.123-6.783-18.714c0-7.698,2.219-14.122,6.598-19.112
	c5.84-6.636,12.17-8.017,16.457-8.017h141.777c4.58,0,8.283,3.703,8.283,8.255v186.16h19.193c4.285,0,10.631,1.38,16.432,7.991
	c4.404,4.99,6.633,11.441,6.633,19.152C363.687,461.99,361.407,468.268,356.892,473.086z"/>
</svg>
