<?xml version="1.0" encoding="utf-8"?>
<!-- Generator: Adobe Illustrator 16.0.0, SVG Export Plug-In . SVG Version: 6.00 Build 0)  -->
<!DOCTYPE svg PUBLIC "-//W3C//DTD SVG 1.1//EN" "http://www.w3.org/Graphics/SVG/1.1/DTD/svg11.dtd">
<svg version="1.1" id="Layer_1" xmlns="http://www.w3.org/2000/svg" xmlns:xlink="http://www.w3.org/1999/xlink" x="0px" y="0px"
	 width="512px" height="512px" viewBox="0 0 512 512" enable-background="new 0 0 512 512" xml:space="preserve">
<path fill-rule="evenodd" clip-rule="evenodd" d="M123.222,202.169c0-60.494,48.304-110.043,107.631-110.043
	c59.24,0,107.576,49.549,107.576,110.043c0,60.91-48.336,110.459-107.576,110.459C171.525,312.628,123.222,263.079,123.222,202.169z
	 M447.677,421.044l-67.012-89.739h-9.36l-8.923,9.339l-13.4-18.678c29.658-30.872,47.942-73.104,47.942-119.798
	c0-93.804-74.315-170.14-166.071-170.14c-91.811,0-166.52,76.336-166.52,170.14c0,94.2,74.709,170.557,166.52,170.557
	c27.194,0,52.736-6.9,75.497-18.678l16.653,19.491l-10.15,10.152v4.857c0,0,64.955,77.168,72.685,85.278
	c7.74,7.712,24.786,4.877,24.786,4.877s24.742-14.613,37.354-27.62C459.853,438.493,447.677,421.044,447.677,421.044z"/>
</svg>
