<?xml version="1.0" encoding="utf-8"?>
<!-- Generator: Adobe Illustrator 16.0.0, SVG Export Plug-In . SVG Version: 6.00 Build 0)  -->
<!DOCTYPE svg PUBLIC "-//W3C//DTD SVG 1.1//EN" "http://www.w3.org/Graphics/SVG/1.1/DTD/svg11.dtd">
<svg version="1.1" id="Layer_1" xmlns="http://www.w3.org/2000/svg" xmlns:xlink="http://www.w3.org/1999/xlink" x="0px" y="0px"
	 width="512px" height="512px" viewBox="0 0 512 512" enable-background="new 0 0 512 512" xml:space="preserve">
<path d="M173.007-0.362H84.063c-10.848,0-19.648,7.944-19.648,17.759v413.165c0,9.814,8.801,17.77,19.648,17.77h88.943
	c10.848,0,19.659-7.955,19.659-17.77V17.396C192.666,7.582,183.854-0.362,173.007-0.362z"/>
<path d="M429.007-0.362h-88.943c-10.848,0-19.648,7.944-19.648,17.759v413.165c0,9.814,8.801,17.77,19.648,17.77h88.943
	c10.848,0,19.659-7.955,19.659-17.77V17.396C448.666,7.582,439.854-0.362,429.007-0.362z"/>
</svg>
